Coordinates
version=1
nRows=20
nColumns=30
inDegrees=yes

Units are S.I. units (second, meters, Newtons, ...)
Angles are in degrees.

endheader
time	floatyaw	floatroll	floatpitch	floatx	floaty	floatz	pro_sup_l	deviation_l	flexion_l	cmc_flexion_l	cmc_abduction_l	mp_flexion_l	ip_flexion_l	2mcp_flexion_l	2mcp_abduction_l	2pm_flexion_l	2md_flexion_l	3mcp_flexion_l	3mcp_abduction_l	3pm_flexion_l	3md_flexion_l	4mcp_flexion_l	4mcp_abduction_l	4pm_flexion_l	4md_flexion_l	5mcp_flexion_l	5mcp_abduction_l	5pm_flexion_l	5md_flexion_l
-0.995000	-160.147433	-5.066637	-73.570646	0.080398	-0.181811	-0.017119	101.923382	1.382142	0.634889	14.521045	4.612210	-25.541056	-40.827205	29.466354	7.236478	41.483018	29.113861	21.857141	4.172054	44.056046	29.671173	10.072513	-4.645033	52.993060	36.120860	-1.750756	-7.539884	62.300068	42.867292
-0.985000	-160.147433	-5.066637	-73.570646	0.080399	-0.181804	-0.017118	101.915915	1.380418	0.638002	14.501393	4.636246	-25.537534	-40.819620	29.476373	7.240284	41.478326	29.113868	21.856279	4.172375	44.071787	29.681824	10.083577	-4.644115	52.987901	36.115800	-1.744000	-7.541477	62.305087	42.867644
-0.975000	-160.147433	-5.066637	-73.570646	0.080399	-0.181802	-0.017118	101.898458	1.374099	0.638890	14.481016	4.666769	-25.533737	-40.814412	29.490659	7.241653	41.476777	29.114940	21.859622	4.172577	44.082598	29.688247	10.091323	-4.642600	52.983400	36.112481	-1.735751	-7.544415	62.305276	42.866206
-0.965000	-160.147433	-5.066637	-73.570646	0.080400	-0.181804	-0.017120	101.872470	1.363784	0.639046	14.460359	4.698463	-25.533141	-40.812738	29.504601	7.240589	41.477958	29.115750	21.864328	4.172232	44.087744	29.690014	10.090219	-4.640414	52.981223	36.110670	-1.732530	-7.548479	62.303292	42.864170
-0.955000	-160.147433	-5.066637	-73.570646	0.080402	-0.181810	-0.017124	101.843455	1.351912	0.639697	14.440669	4.725314	-25.538365	-40.816070	29.514163	7.237630	41.481179	29.116406	21.867728	4.171016	44.088364	29.688725	10.078476	-4.638067	52.982895	36.110403	-1.738788	-7.553075	62.303278	42.863567
-0.945000	-160.147433	-5.066637	-73.570646	0.080405	-0.181816	-0.017129	101.819204	1.342031	0.641481	14.422998	4.743201	-25.549243	-40.824428	29.517057	7.234181	41.485668	29.118582	21.867780	4.169053	44.087381	29.687684	10.059067	-4.636380	52.989145	36.112218	-1.753900	-7.557516	62.308248	42.866009
-0.935000	-160.147433	-5.066637	-73.570646	0.080408	-0.181819	-0.017134	101.806447	1.337240	0.644488	14.407492	4.751476	-25.562428	-40.835354	29.513296	7.232218	41.490494	29.124556	21.863297	4.166948	44.088511	29.690639	10.038210	-4.636015	52.999327	36.116814	-1.772357	-7.561169	62.318306	42.871784
-0.925000	-160.147433	-5.066637	-73.570646	0.080410	-0.181818	-0.017137	101.807633	1.338624	0.648474	14.393478	4.752805	-25.573116	-40.844715	29.505062	7.233363	41.494602	29.135723	21.854268	4.165459	44.094704	29.699985	10.022253	-4.637073	53.011399	36.124370	-1.786873	-7.563520	62.330742	42.879732
-0.915000	-160.147433	-5.066637	-73.570646	0.080412	-0.181811	-0.017138	101.819780	1.344683	0.653105	14.380157	4.751619	-25.577842	-40.848972	29.495901	7.237960	41.497210	29.151358	21.842101	4.165063	44.106885	29.715366	10.014789	-4.639025	53.022660	36.133939	-1.792168	-7.564333	62.341790	42.887694
-0.905000	-160.147433	-5.066637	-73.570646	0.080412	-0.181801	-0.017137	101.836155	1.352186	0.658102	14.367238	4.752171	-25.576412	-40.847324	29.489444	7.244801	41.498321	29.168311	21.829377	4.165748	44.123713	29.733527	10.015487	-4.640990	53.030902	36.143321	-1.787157	-7.563884	62.348892	42.893127
-0.895000	-160.147433	-5.066637	-73.570646	0.080411	-0.181790	-0.017135	101.849774	1.357920	0.663256	14.354979	4.757136	-25.571766	-40.842241	29.488126	7.251787	41.498873	29.181891	21.819015	4.167147	44.142441	29.749605	10.021045	-4.642168	53.035279	36.149625	-1.774727	-7.562965	62.352041	42.893768
-0.885000	-160.147433	-5.066637	-73.570646	0.080411	-0.181779	-0.017134	101.856586	1.360227	0.668378	14.343693	4.767320	-25.568164	-40.838083	29.492423	7.257099	41.500321	29.187724	21.813223	4.168836	44.160316	29.759274	10.027444	-4.642166	53.036377	36.150397	-1.759797	-7.562492	62.353511	42.888442
-0.875000	-160.147433	-5.066637	-73.570646	0.080411	-0.181769	-0.017133	101.856462	1.359407	0.673292	14.333179	4.782479	-25.569061	-40.838682	29.500961	7.260160	41.503933	29.183805	21.812779	4.170548	44.175763	29.760687	10.032112	-4.641075	53.035583	36.144838	-1.747002	-7.562906	62.356317	42.877846
-0.865000	-160.147433	-5.066637	-73.570646	0.080412	-0.181759	-0.017132	101.851696	1.356935	0.677911	14.322469	4.802514	-25.575790	-40.845218	29.511467	7.261737	41.510330	29.171678	21.816933	4.172173	44.188744	29.755173	10.034816	-4.639345	53.034322	36.134460	-1.739163	-7.563849	62.362460	42.864837
-0.855000	-160.147433	-5.066637	-73.570646	0.080413	-0.181749	-0.017132	101.844405	1.354208	0.682341	14.309988	4.827998	-25.587333	-40.855452	29.522004	7.263138	41.519463	29.155994	21.823870	4.173663	44.200099	29.746355	10.036964	-4.637550	53.033563	36.122734	-1.736980	-7.564399	62.371931	42.853788
-0.845000	-160.147433	-5.066637	-73.570646	0.080413	-0.181739	-0.017130	101.834896	1.351774	0.686904	14.294117	4.859343	-25.600950	-40.864730	29.531796	7.265170	41.530694	29.142588	21.831475	4.174964	44.210340	29.738228	10.039977	-4.636127	53.033655	36.113832	-1.739617	-7.563723	62.382804	42.849111
-0.835000	-160.147433	-5.066637	-73.570646	0.080411	-0.181729	-0.017127	101.822158	1.349479	0.691981	14.274044	4.894951	-25.613294	-40.868431	29.541175	7.267633	41.542635	29.136020	21.838107	4.176014	44.218784	29.733377	10.043941	-4.635163	53.034338	36.111034	-1.745469	-7.561710	62.392167	42.853565
-0.825000	-160.147433	-5.066637	-73.570646	0.080409	-0.181720	-0.017121	101.805809	1.347142	0.697738	14.250466	4.929726	-25.621600	-40.864542	29.550820	7.269678	41.553023	29.137817	21.843061	4.176771	44.223856	29.732289	10.047397	-4.634375	53.034961	36.115539	-1.752639	-7.559085	62.397338	42.867039
-0.815000	-160.147433	-5.066637	-73.570646	0.080407	-0.181713	-0.017115	101.787599	1.345014	0.703906	14.225461	4.955603	-25.624471	-40.854717	29.560889	7.270587	41.559345	29.146227	21.846439	4.177211	44.224509	29.733969	10.048269	-4.633351	53.035010	36.126122	-1.759271	-7.556944	62.396912	42.886340
-0.805000	-160.147433	-5.066637	-73.570646	0.080405	-0.181708	-0.017108	101.771031	1.343617	0.709833	14.201320	4.964645	-25.622005	-40.843062	29.570635	7.270250	41.560257	29.157407	21.848447	4.177335	44.221700	29.737170	10.045120	-4.631940	53.034722	36.139631	-1.764140	-7.556031	62.391374	42.906125
